# xmcd
#
# Track frame offsets: 
#        150
#        17255
#        29911
#        46261
#        60004
#        79412
#        92263
#        113798
#        131494
#        148524
#        156060
#        173255
#        184574
#        205789
#        221598
#        240930
#
# Disc length: 3550 seconds
#
# Revision: 1
# Processed by: cddbd v1.5.2PL0 Copyright (c) Steve Scherf et al.
# Submitted via: ExactAudioCopyFreeDBPlugin 1.0
#
DISCID=bc0ddc10
DTITLE=Pino Daniele - Pino Daniele - extended edition
DYEAR=2015
DGENRE=Blues
TTITLE0=Je sto vicino a te
TTITLE1=Chi tene 'o mare
TTITLE2=Basta 'na jurnata 'e sole
TTITLE3=Je so' pazzo
TTITLE4=Ninnanàninnanoè
TTITLE5=Chillo è 'nu buono guaglione
TTITLE6=Ue man!
TTITLE7=Donna cuncetta
TTITLE8=Il mare
TTITLE9=Viento
TTITLE10=Putesse essere allero
TTITLE11=E cerca 'e me capi'
TTITLE12=Basta 'na jurnata 'e sole - demo
TTITLE13=E cerca 'e me capi' - demo
TTITLE14=Chillo è 'nu buono guaglione - demo
TTITLE15=Putesse essere allero - demo and studio session
EXTD=
EXTT0=
EXTT1=
EXTT2=
EXTT3=
EXTT4=
EXTT5=
EXTT6=
EXTT7=
EXTT8=
EXTT9=
EXTT10=
EXTT11=
EXTT12=
EXTT13=
EXTT14=
EXTT15=
PLAYORDER=
